<?xml version="1.0" standalone="no"?>
<!DOCTYPE svg PUBLIC "-//W3C//DTD SVG 20010904//EN"
 "http://www.w3.org/TR/2001/REC-SVG-20010904/DTD/svg10.dtd">
<svg version="1.0" xmlns="http://www.w3.org/2000/svg"
 width="2672.000000pt" height="1304.000000pt" viewBox="0 0 2672.000000 1304.000000"
 preserveAspectRatio="xMidYMid meet">
<metadata>
Created by potrace 1.15, written by Peter Selinger 2001-2017
</metadata>
<g transform="translate(0.000000,1304.000000) scale(0.100000,-0.100000)"
fill="#000000" stroke="none">
<path d="M3330 9860 c-1829 -1748 -3325 -3185 -3325 -3193 0 -14 6354 -6667
6367 -6667 14 0 6663 6361 6663 6374 0 15 -6356 6666 -6370 6666 -5 -1 -1506
-1431 -3335 -3180z m6260 -489 l2851 -2984 -28 -28 c-15 -15 -1378 -1317
-3028 -2893 l-2999 -2867 -42 43 c-23 24 -1325 1386 -2894 3027 l-2851 2984
63 63 c35 34 1397 1336 3027 2894 l2964 2832 42 -44 c24 -23 1326 -1386 2895
-3027z"/>
<path d="M4630 8931 c-134 -43 -212 -107 -267 -219 -36 -72 -38 -82 -41 -186
-5 -135 15 -198 83 -274 78 -86 203 -138 485 -202 181 -40 220 -54 269 -96 55
-47 74 -87 75 -154 1 -70 -31 -138 -85 -180 -116 -93 -350 -96 -502 -7 -94 55
-186 182 -236 327 l-19 55 -51 3 -51 3 0 -275 0 -276 44 0 c42 0 46 3 96 65
28 36 54 65 57 65 3 0 31 -16 63 -36 108 -67 179 -87 325 -92 147 -5 214 8
325 60 90 43 189 143 221 223 20 51 24 77 24 175 0 104 -3 121 -26 171 -50
106 -138 180 -266 224 -38 13 -141 40 -231 60 -197 44 -258 64 -316 104 -111
77 -113 222 -4 316 60 51 122 68 228 63 73 -3 98 -9 153 -36 99 -49 178 -134
238 -257 27 -55 49 -106 49 -112 0 -9 17 -13 50 -13 l50 0 0 228 c0 125 -3
237 -6 250 -5 18 -13 22 -45 22 -35 0 -41 -5 -79 -59 l-42 -60 -46 34 c-112
79 -202 105 -358 104 -76 0 -126 -5 -164 -18z"/>
<path d="M6172 8930 c-200 -53 -386 -218 -466 -416 -44 -108 -59 -211 -53
-368 3 -84 12 -165 21 -201 66 -238 245 -415 484 -476 105 -27 276 -26 365 1
83 26 176 88 224 150 21 27 40 49 43 50 3 0 30 -49 60 -110 l54 -110 48 0 48
0 0 278 c0 325 -5 309 104 319 l66 6 0 43 0 44 -355 0 -355 0 0 -44 0 -44 96
-4 c133 -6 137 -11 132 -168 -3 -102 -6 -122 -31 -172 -54 -109 -142 -158
-286 -158 -166 0 -285 105 -335 295 -9 33 -21 129 -27 212 -29 399 50 657 233
759 49 27 61 29 153 29 91 0 105 -3 154 -29 88 -46 162 -127 214 -237 25 -51
53 -120 62 -151 l16 -58 51 0 51 0 -6 68 c-3 37 -12 167 -18 290 l-13 222 -42
0 c-43 0 -43 0 -80 -70 l-36 -70 -37 29 c-56 43 -121 78 -180 95 -78 23 -264
21 -359 -4z"/>
<path d="M7270 8875 l0 -45 53 -1 c77 0 148 -14 158 -30 5 -8 9 -275 9 -595 0
-455 -3 -584 -13 -598 -16 -21 -74 -35 -149 -36 l-58 0 0 -45 0 -45 664 0 663
0 7 223 c4 122 9 246 13 275 l5 52 -50 0 -50 0 -17 -77 c-23 -105 -64 -191
-116 -249 -94 -101 -168 -127 -364 -128 -152 -1 -199 10 -209 47 -3 12 -6 140
-6 285 l0 263 68 -6 c43 -4 87 -16 122 -33 46 -23 59 -36 82 -82 16 -30 32
-82 36 -115 l7 -60 48 -3 47 -3 0 336 0 336 -47 -3 -46 -3 -13 -61 c-28 -138
-91 -194 -236 -209 l-68 -7 0 261 c0 303 -3 294 95 306 91 12 280 -4 344 -27
109 -41 170 -130 209 -305 l16 -73 48 0 c32 0 48 4 48 13 0 34 -21 389 -26
435 l-5 52 -635 0 -634 0 0 -45z"/>
<path d="M1430 6520 l0 -210 5090 0 5090 0 0 210 0 210 -5090 0 -5090 0 0
-210z"/>
<path d="M7083 5997 l-143 -10 0 -47 0 -48 60 -7 c44 -5 66 -13 85 -32 l25
-26 0 -569 c0 -365 -4 -576 -10 -588 -11 -21 -67 -40 -117 -40 -32 0 -33 -1
-33 -45 l0 -45 290 0 290 0 0 45 c0 42 -2 45 -27 45 -48 0 -102 20 -114 41 -7
14 -9 98 -7 252 3 221 4 234 27 277 46 88 106 130 186 130 85 0 145 -52 165
-142 7 -34 10 -133 8 -279 -4 -264 -3 -262 -94 -274 l-54 -6 0 -45 0 -44 280
0 280 0 0 45 c0 42 -2 45 -27 45 -45 0 -100 19 -109 38 -5 9 -11 152 -14 317
l-5 300 -29 63 c-54 116 -127 156 -278 150 -120 -4 -182 -32 -273 -120 l-65
-64 0 348 0 348 -77 -2 c-43 -1 -142 -6 -220 -11z"/>
<path d="M5017 5920 c-103 -26 -197 -99 -248 -192 -33 -61 -34 -67 -34 -173 0
-126 17 -173 75 -212 46 -32 134 -32 181 0 83 55 93 190 17 239 -13 8 -41 21
-63 28 -60 18 -85 38 -85 64 0 38 42 88 100 119 49 25 63 28 126 25 60 -3 77
-8 109 -32 59 -45 80 -103 80 -216 -1 -189 -65 -307 -335 -615 -67 -77 -153
-181 -191 -231 -63 -82 -69 -95 -69 -137 l0 -47 450 0 450 0 0 24 c0 30 18
310 25 389 l5 57 -53 0 -53 0 -22 -74 c-27 -93 -54 -125 -112 -137 -25 -4
-139 -8 -255 -9 l-209 0 39 41 c22 23 119 100 214 172 265 198 323 255 380
371 101 206 31 426 -167 519 -63 30 -74 32 -192 34 -69 1 -142 -2 -163 -7z"/>
<path d="M6141 5475 l-331 -454 0 -71 0 -70 251 0 251 0 -4 -100 c-4 -129 -11
-137 -125 -146 l-83 -7 0 -43 0 -44 310 0 310 0 0 44 0 44 -47 7 c-88 12 -93
20 -93 140 l0 105 95 0 95 0 0 55 0 55 -95 0 -95 0 0 470 0 470 -54 0 -54 0
-331 -455z m166 -482 c-2 -2 -89 -2 -194 -1 l-189 3 190 262 191 263 3 -262
c1 -143 1 -263 -1 -265z"/>
<path d="M13880 7141 c-134 -43 -212 -107 -267 -219 -36 -72 -38 -82 -41 -186
-5 -135 15 -198 83 -274 78 -86 203 -138 485 -202 181 -40 220 -54 269 -96 55
-47 74 -87 75 -154 1 -70 -31 -138 -85 -180 -116 -93 -350 -96 -502 -7 -94 55
-186 182 -236 327 l-19 55 -51 3 -51 3 0 -275 0 -276 44 0 c42 0 46 3 96 65
28 36 54 65 57 65 3 0 31 -16 63 -36 108 -67 179 -87 325 -92 147 -5 214 8
325 60 90 43 189 143 221 223 20 51 24 77 24 175 0 104 -3 121 -26 171 -50
106 -138 180 -266 224 -38 13 -141 40 -231 60 -197 44 -258 64 -316 104 -111
77 -113 222 -4 316 60 51 122 68 228 63 73 -3 98 -9 153 -36 99 -49 178 -134
238 -257 27 -55 49 -106 49 -112 0 -9 17 -13 50 -13 l50 0 0 228 c0 125 -3
237 -6 250 -5 18 -13 22 -45 22 -35 0 -41 -5 -79 -59 l-42 -60 -46 34 c-112
79 -202 105 -358 104 -76 0 -126 -5 -164 -18z"/>
<path d="M15422 7140 c-200 -53 -386 -218 -466 -416 -44 -108 -59 -211 -53
-368 3 -84 12 -165 21 -201 66 -238 245 -415 484 -476 105 -27 276 -26 365 1
83 26 176 88 224 150 21 27 40 49 43 50 3 0 30 -49 60 -110 l54 -110 48 0 48
0 0 278 c0 325 -5 309 104 319 l66 6 0 43 0 44 -355 0 -355 0 0 -44 0 -44 96
-4 c133 -6 137 -11 132 -168 -3 -102 -6 -122 -31 -172 -54 -109 -142 -158
-286 -158 -166 0 -285 105 -335 295 -9 33 -21 129 -27 212 -29 399 50 657 233
759 49 27 61 29 153 29 91 0 105 -3 154 -29 88 -46 162 -127 214 -237 25 -51
53 -120 62 -151 l16 -58 51 0 51 0 -6 68 c-3 37 -12 167 -18 290 l-13 222 -42
0 c-43 0 -43 0 -80 -70 l-36 -70 -37 29 c-56 43 -121 78 -180 95 -78 23 -264
21 -359 -4z"/>
<path d="M25563 7147 l-143 -10 0 -47 0 -48 60 -7 c44 -5 66 -13 85 -32 l25
-26 0 -569 c0 -365 -4 -576 -10 -588 -11 -21 -67 -40 -117 -40 -32 0 -33 -1
-33 -45 l0 -45 290 0 290 0 0 45 c0 42 -2 45 -27 45 -48 0 -102 20 -114 41 -7
14 -9 98 -7 252 3 221 4 234 27 277 46 88 106 130 186 130 85 0 145 -52 165
-142 7 -34 10 -133 8 -279 -4 -264 -3 -262 -94 -274 l-54 -6 0 -45 0 -44 280
0 280 0 0 45 c0 42 -2 45 -27 45 -45 0 -100 19 -109 38 -5 9 -11 152 -14 317
l-5 300 -29 63 c-54 116 -127 156 -278 150 -120 -4 -182 -32 -273 -120 l-65
-64 0 348 0 348 -77 -2 c-43 -1 -142 -6 -220 -11z"/>
<path d="M16520 7085 l0 -45 53 -1 c77 0 148 -14 158 -30 5 -8 9 -275 9 -595
0 -455 -3 -584 -13 -598 -16 -21 -74 -35 -149 -36 l-58 0 0 -45 0 -45 664 0
663 0 7 223 c4 122 9 246 13 275 l5 52 -50 0 -50 0 -17 -77 c-23 -105 -64
-191 -116 -249 -94 -101 -168 -127 -364 -128 -152 -1 -199 10 -209 47 -3 12
-6 140 -6 285 l0 263 68 -6 c43 -4 87 -16 122 -33 46 -23 59 -36 82 -82 16
-30 32 -82 36 -115 l7 -60 48 -3 47 -3 0 336 0 336 -47 -3 -46 -3 -13 -61
c-28 -138 -91 -194 -236 -209 l-68 -7 0 261 c0 303 -3 294 95 306 91 12 280
-4 344 -27 109 -41 170 -130 209 -305 l16 -73 48 0 c32 0 48 4 48 13 0 34 -21
389 -26 435 l-5 52 -635 0 -634 0 0 -45z"/>
<path d="M23497 7070 c-103 -26 -197 -99 -248 -192 -33 -61 -34 -67 -34 -173
0 -126 17 -173 75 -212 46 -32 134 -32 181 0 83 55 93 190 17 239 -13 8 -41
21 -63 28 -60 18 -85 38 -85 64 0 38 42 88 100 119 49 25 63 28 126 25 60 -3
77 -8 109 -32 59 -45 80 -103 80 -216 -1 -189 -65 -307 -335 -615 -67 -77
-153 -181 -191 -231 -63 -82 -69 -95 -69 -137 l0 -47 450 0 450 0 0 24 c0 30
18 310 25 389 l5 57 -53 0 -53 0 -22 -74 c-27 -93 -54 -125 -112 -137 -25 -4
-139 -8 -255 -9 l-209 0 39 41 c22 23 119 100 214 172 265 198 323 255 380
371 101 206 31 426 -167 519 -63 30 -74 32 -192 34 -69 1 -142 -2 -163 -7z"/>
<path d="M24621 6625 l-331 -454 0 -71 0 -70 251 0 251 0 -4 -100 c-4 -129
-11 -137 -125 -146 l-83 -7 0 -43 0 -44 310 0 310 0 0 44 0 44 -47 7 c-88 12
-93 20 -93 140 l0 105 95 0 95 0 0 55 0 55 -95 0 -95 0 0 470 0 470 -54 0 -54
0 -331 -455z m166 -482 c-2 -2 -89 -2 -194 -1 l-189 3 190 262 191 263 3 -262
c1 -143 1 -263 -1 -265z"/>
<path d="M19343 6923 c-34 -181 -123 -285 -277 -324 l-46 -11 0 -49 0 -49 80
0 80 0 0 -302 c0 -176 4 -318 10 -340 19 -67 70 -131 129 -160 47 -24 67 -28
141 -28 77 0 94 4 148 31 65 32 100 67 133 131 22 44 49 154 49 206 0 32 0 32
-49 32 l-48 0 -7 -61 c-7 -70 -33 -136 -67 -167 -25 -24 -86 -30 -120 -12 -46
25 -49 50 -49 370 l0 300 150 0 150 0 0 55 0 55 -150 0 -150 0 0 190 0 190
-48 0 -48 0 -11 -57z"/>
<path d="M21413 6923 c-34 -181 -123 -285 -277 -324 l-46 -11 0 -49 0 -49 80
0 80 0 0 -302 c0 -176 4 -318 10 -340 19 -67 70 -131 129 -160 47 -24 67 -28
141 -28 77 0 94 4 148 31 65 32 100 67 133 131 22 44 49 154 49 206 0 32 0 32
-49 32 l-48 0 -7 -61 c-7 -70 -33 -136 -67 -167 -25 -24 -86 -30 -120 -12 -46
25 -49 50 -49 370 l0 300 150 0 150 0 0 55 0 55 -150 0 -150 0 0 190 0 190
-48 0 -48 0 -11 -57z"/>
<path d="M18307 6635 c-86 -32 -165 -114 -187 -194 -18 -67 -12 -171 14 -227
44 -94 121 -139 314 -184 242 -57 272 -70 287 -130 9 -38 -25 -91 -76 -118
-40 -21 -54 -23 -144 -20 -83 3 -108 8 -150 30 -58 30 -134 107 -164 167 -20
39 -24 41 -67 41 l-46 0 7 -162 c4 -90 9 -166 12 -170 2 -5 23 -8 46 -8 36 0
46 5 72 36 l30 36 35 -20 c62 -36 138 -52 245 -52 131 0 204 23 275 87 76 68
95 110 95 213 0 73 -4 93 -29 143 -51 106 -133 152 -351 197 -140 30 -203 50
-231 77 -48 44 -21 129 52 159 55 23 180 18 240 -10 57 -27 114 -81 151 -143
23 -41 28 -43 70 -43 l45 0 -7 148 c-4 81 -9 150 -12 155 -2 4 -19 7 -38 7
-25 0 -40 -8 -62 -33 l-28 -33 -65 30 c-59 28 -75 31 -180 33 -81 2 -126 -2
-153 -12z"/>
<path d="M20250 6636 c-82 -23 -139 -54 -189 -101 -57 -54 -76 -98 -68 -163 4
-37 12 -53 41 -79 32 -30 42 -33 95 -33 33 0 71 5 85 12 54 24 75 92 51 159
-29 80 -30 76 14 98 57 29 152 29 205 -2 60 -33 79 -75 84 -177 l4 -87 -52 -7
c-77 -10 -348 -81 -400 -104 -148 -65 -220 -187 -190 -320 9 -42 22 -64 55
-98 60 -59 124 -77 259 -72 120 4 176 27 270 106 l60 50 37 -59 c51 -78 92
-99 198 -99 84 0 177 26 202 56 19 23 -12 70 -43 66 -13 -2 -39 -5 -60 -8 -64
-10 -66 -2 -70 341 l-3 300 -33 67 c-60 123 -141 159 -362 164 -98 2 -160 -1
-190 -10z m320 -544 c0 -180 -80 -282 -222 -282 -66 0 -101 22 -118 76 -27 82
19 177 108 220 43 20 164 52 205 53 27 1 27 1 27 -67z"/>
<path d="M22328 6631 c-152 -50 -272 -179 -313 -336 -19 -73 -19 -223 -1 -290
30 -113 96 -206 190 -267 89 -57 167 -78 295 -78 170 0 262 32 354 124 43 43
107 131 107 147 0 9 -63 49 -76 49 -5 0 -27 -26 -49 -56 -75 -104 -159 -153
-265 -154 -147 0 -242 110 -257 298 l-6 72 323 0 322 0 -7 63 c-17 160 -61
262 -147 342 -83 77 -143 98 -293 102 -97 2 -131 -1 -177 -16z m263 -104 c50
-33 81 -97 87 -176 4 -56 1 -70 -16 -91 -20 -25 -23 -25 -188 -29 l-167 -3 6
68 c10 118 65 224 127 247 40 15 118 6 151 -16z"/>
</g>
</svg>
